<svg width="81" height="46" viewBox="0 0 81 46" fill="none" xmlns="http://www.w3.org/2000/svg">
<path d="M25.4 38.05L6.35 32.6C4.28333 32 2.7 31.1833 1.6 30.15C0.533334 29.0833 2.83122e-07 27.3167 2.83122e-07 24.85V21.25C2.83122e-07 18.7833 0.533334 17.0333 1.6 16C2.7 14.9333 4.28333 14.1 6.35 13.5L25.4 8.05C26.0333 7.91666 26.4833 7.98333 26.75 8.25C27.05 8.51667 27.2 8.96667 27.2 9.6V16.2C27.2 16.8333 27.05 17.3167 26.75 17.65C26.4833 17.95 26.0333 18.15 25.4 18.25L11.05 22.1C10.7167 22.1667 10.4833 22.2667 10.35 22.4C10.25 22.5333 10.2 22.75 10.2 23.05C10.2 23.35 10.25 23.5667 10.35 23.7C10.4833 23.8333 10.7167 23.9333 11.05 24L25.4 27.85C26.0333 27.95 26.4833 28.1667 26.75 28.5C27.05 28.8 27.2 29.2667 27.2 29.9V36.5C27.2 37.1333 27.05 37.5833 26.75 37.85C26.4833 38.1167 26.0333 38.1833 25.4 38.05ZM32.0434 43.7L38.0434 2.3C38.11 1.66666 38.26 1.21666 38.4934 0.949997C38.76 0.649997 39.21 0.499997 39.8434 0.499997H47.0934C47.7267 0.499997 48.1934 0.649997 48.4934 0.949997C48.8267 1.21666 48.96 1.66666 48.8934 2.3L42.8934 43.7C42.8267 44.3333 42.66 44.7833 42.3934 45.05C42.16 45.35 41.7267 45.5 41.0934 45.5H33.8434C33.21 45.5 32.7267 45.35 32.3934 45.05C32.0934 44.7833 31.9767 44.3333 32.0434 43.7ZM74.3773 32.6L55.3273 38.05C54.694 38.1833 54.2273 38.1167 53.9273 37.85C53.6607 37.5833 53.5273 37.1333 53.5273 36.5V29.9C53.5273 29.2667 53.6607 28.8 53.9273 28.5C54.2273 28.1667 54.694 27.95 55.3273 27.85L69.6773 24C70.0107 23.9333 70.2273 23.8333 70.3273 23.7C70.4607 23.5667 70.5273 23.35 70.5273 23.05C70.5273 22.75 70.4607 22.5333 70.3273 22.4C70.2273 22.2667 70.0107 22.1667 69.6773 22.1L55.3273 18.25C54.694 18.15 54.2273 17.95 53.9273 17.65C53.6607 17.3167 53.5273 16.8333 53.5273 16.2V9.6C53.5273 8.96667 53.6607 8.51667 53.9273 8.25C54.2273 7.98333 54.694 7.91666 55.3273 8.05L74.3773 13.5C76.444 14.1 78.0107 14.9333 79.0773 16C80.1773 17.0333 80.7273 18.7833 80.7273 21.25V24.85C80.7273 27.3167 80.1773 29.0833 79.0773 30.15C78.0107 31.1833 76.444 32 74.3773 32.6Z" fill="white"/>
</svg>
